<svg width="26" height="24" viewBox="0 0 26 24" fill="none" xmlns="http://www.w3.org/2000/svg">
<path d="M23.5625 3.88H2.4375C1.98809 3.88 1.625 4.19665 1.625 4.58858V18.7601C1.625 19.152 1.98809 19.4687 2.4375 19.4687H23.5625C24.0119 19.4687 24.375 19.152 24.375 18.7601V4.58858C24.375 4.19665 24.0119 3.88 23.5625 3.88ZM22.5469 6.33345V17.8744H3.45312V6.33345L2.75234 5.85737L3.7502 4.73915L4.83691 5.47651H21.1656L22.2523 4.73915L23.2502 5.85737L22.5469 6.33345ZM21.1656 5.4743L13 11.01L4.83437 5.4743L3.74766 4.73694L2.7498 5.85516L3.45059 6.33123L12.124 12.2124C12.3735 12.3814 12.6803 12.4731 12.9962 12.4731C13.3121 12.4731 13.6189 12.3814 13.8684 12.2124L22.5469 6.33345L23.2477 5.85737L22.2498 4.73915L21.1656 5.4743Z" fill="white" fill-opacity="0.5"/>
</svg>
