<svg width="32" height="28" viewBox="0 0 32 28" fill="none" xmlns="http://www.w3.org/2000/svg">
<path d="M22.4061 9.63431C23.2014 9.63431 23.8461 9.07206 23.8461 8.37849C23.8461 7.68493 23.2014 7.12268 22.4061 7.12268C21.6108 7.12268 20.9661 7.68493 20.9661 8.37849C20.9661 9.07206 21.6108 9.63431 22.4061 9.63431Z" fill="white" fill-opacity="0.5"/>
<path d="M15.9999 8.59131C14.7812 8.59131 13.5898 8.90648 12.5765 9.49696C11.5631 10.0874 10.7733 10.9267 10.3069 11.9087C9.84056 12.8906 9.71853 13.9711 9.95629 15.0135C10.1941 16.056 10.7809 17.0135 11.6427 17.765C12.5045 18.5166 13.6024 19.0284 14.7977 19.2357C15.9931 19.4431 17.232 19.3367 18.358 18.9299C19.4839 18.5232 20.4463 17.8344 21.1234 16.9507C21.8005 16.067 22.1619 15.028 22.1619 13.9651C22.1619 12.5399 21.5127 11.1731 20.3571 10.1653C19.2015 9.15748 17.6342 8.59131 15.9999 8.59131ZM15.9999 17.4535C15.2088 17.4535 14.4354 17.2489 13.7776 16.8656C13.1198 16.4823 12.6071 15.9375 12.3044 15.3001C12.0016 14.6627 11.9224 13.9613 12.0768 13.2846C12.2311 12.6079 12.6121 11.9864 13.1715 11.4985C13.7309 11.0106 14.4436 10.6784 15.2195 10.5438C15.9955 10.4092 16.7997 10.4783 17.5306 10.7423C18.2615 11.0063 18.8862 11.4535 19.3258 12.0271C19.7653 12.6008 19.9999 13.2752 19.9999 13.9651C19.9999 14.8903 19.5785 15.7776 18.8283 16.4318C18.0782 17.086 17.0608 17.4535 15.9999 17.4535Z" fill="white" fill-opacity="0.5"/>
<path d="M16 5.38547C19.204 5.38547 19.584 5.39593 20.849 5.44651C21.6098 5.45439 22.3635 5.57622 23.077 5.80669C23.5947 5.98084 24.0648 6.24757 24.4571 6.58972C24.8495 6.93187 25.1553 7.34186 25.355 7.79331C25.6193 8.41558 25.759 9.07281 25.768 9.73634C25.826 10.8395 25.838 11.1709 25.838 13.966C25.838 16.761 25.826 17.0907 25.768 18.1939C25.759 18.8574 25.6193 19.5147 25.355 20.1369C25.1553 20.5884 24.8495 20.9984 24.4571 21.3405C24.0648 21.6827 23.5947 21.9494 23.077 22.1235C22.3635 22.354 21.6098 22.4758 20.849 22.4837C19.584 22.5343 19.204 22.5448 16 22.5448C12.796 22.5448 12.416 22.5343 11.151 22.4837C10.3902 22.4758 9.63653 22.354 8.923 22.1235C8.40534 21.9494 7.93521 21.6827 7.54288 21.3405C7.15055 20.9984 6.84469 20.5884 6.645 20.1369C6.38073 19.5147 6.24103 18.8574 6.232 18.1939C6.174 17.0907 6.162 16.7593 6.162 13.9651C6.162 11.1709 6.174 10.8395 6.232 9.73634C6.24103 9.07281 6.38073 8.41558 6.645 7.79331C6.84469 7.34186 7.15055 6.93187 7.54288 6.58972C7.93521 6.24757 8.40534 5.98084 8.923 5.80669C9.63653 5.57622 10.3902 5.45439 11.151 5.44651C12.416 5.39593 12.796 5.38547 16 5.38547ZM16 3.5C12.741 3.5 12.332 3.51221 11.052 3.56279C10.0568 3.58032 9.07216 3.74486 8.14 4.04942C7.34272 4.31828 6.61866 4.72946 6.01422 5.25659C5.40978 5.78371 4.9383 6.41517 4.63 7.11047C4.28066 7.92367 4.09198 8.78265 4.072 9.65087C4.014 10.7672 4 11.1221 4 13.9651C4 16.8081 4.014 17.164 4.072 18.2802C4.0921 19.1482 4.28077 20.0068 4.63 20.8198C4.9383 21.5151 5.40978 22.1465 6.01422 22.6736C6.61866 23.2008 7.34272 23.6119 8.14 23.8808C9.07247 24.1855 10.0574 24.35 11.053 24.3674C12.333 24.418 12.741 24.4302 16 24.4302C19.259 24.4302 19.668 24.418 20.948 24.3674C21.9436 24.35 22.9285 24.1855 23.861 23.8808C24.6583 23.6119 25.3823 23.2008 25.9868 22.6736C26.5912 22.1465 27.0627 21.5151 27.371 20.8198C27.72 20.0065 27.9083 19.1475 27.928 18.2794C27.986 17.1631 28 16.8081 28 13.9651C28 11.1221 27.986 10.7663 27.928 9.65C27.9079 8.78207 27.7192 7.92339 27.37 7.11047C27.0617 6.41517 26.5902 5.78371 25.9858 5.25659C25.3813 4.72946 24.6573 4.31828 23.86 4.04942C22.9275 3.74506 21.9425 3.58081 20.947 3.56366C19.667 3.51134 19.26 3.5 16 3.5Z" fill="white" fill-opacity="0.5"/>
</svg>
