<svg width="25" height="24" viewBox="0 0 25 24" fill="none" xmlns="http://www.w3.org/2000/svg">
<path d="M12.3987 6.31335C11.7806 6.31335 11.1764 6.47958 10.6625 6.79102C10.1486 7.10246 9.74808 7.54512 9.51156 8.06302C9.27504 8.58092 9.21315 9.1508 9.33373 9.7006C9.45431 10.2504 9.75193 10.7554 10.189 11.1518C10.626 11.5482 11.1828 11.8181 11.789 11.9275C12.3952 12.0369 13.0235 11.9807 13.5946 11.7662C14.1656 11.5517 14.6536 11.1884 14.997 10.7223C15.3404 10.2562 15.5237 9.70823 15.5237 9.14766C15.5227 8.39622 15.1932 7.6758 14.6073 7.14445C14.0215 6.6131 13.2272 6.31421 12.3987 6.31335ZM12.3987 10.5648C12.0896 10.5648 11.7876 10.4817 11.5306 10.326C11.2737 10.1703 11.0734 9.94893 10.9551 9.68998C10.8369 9.43103 10.8059 9.14608 10.8662 8.87118C10.9265 8.59628 11.0753 8.34377 11.2938 8.14558C11.5123 7.94739 11.7908 7.81242 12.0939 7.75774C12.3969 7.70305 12.7111 7.73112 12.9966 7.83838C13.2821 7.94564 13.5262 8.12728 13.6979 8.36033C13.8695 8.59338 13.9612 8.86737 13.9612 9.14766C13.9607 9.52338 13.7959 9.88358 13.503 10.1493C13.2101 10.4149 12.8129 10.5644 12.3987 10.5648Z" fill="white" fill-opacity="0.5"/>
<path d="M18.4037 3.69704C16.919 2.35077 14.9371 1.55103 12.8404 1.45217C10.7438 1.35331 8.68111 1.96234 7.05047 3.16172C5.41982 4.3611 4.33682 6.06581 4.01047 7.94682C3.68413 9.82784 4.13758 11.7518 5.28332 13.3474L11.187 21.5675C11.3184 21.7504 11.498 21.9007 11.7096 22.0047C11.9212 22.1087 12.1581 22.1632 12.3988 22.1632C12.6395 22.1632 12.8763 22.1087 13.0879 22.0047C13.2996 21.9007 13.4792 21.7504 13.6106 21.5675L19.5144 13.3474C20.5775 11.8673 21.0473 10.1006 20.8451 8.34367C20.6429 6.5867 19.781 4.94616 18.4037 3.69704ZM18.2052 12.5739L12.3988 20.6583L6.5923 12.5739C4.81496 10.0992 5.19616 6.78754 7.4987 4.6991C8.14218 4.11546 8.90611 3.65249 9.74687 3.33662C10.5876 3.02076 11.4888 2.85818 12.3988 2.85818C13.3088 2.85818 14.21 3.02076 15.0507 3.33662C15.8915 3.65249 16.6554 4.11546 17.2989 4.6991C19.6014 6.78754 19.9826 10.0992 18.2052 12.5739Z" fill="white" fill-opacity="0.5"/>
</svg>
