<svg width="20" height="17" viewBox="0 0 20 17" fill="none" xmlns="http://www.w3.org/2000/svg">
<path d="M18.3334 12.3314V14.5116C18.3344 14.714 18.2868 14.9143 18.1939 15.0998C18.1009 15.2852 17.9645 15.4517 17.7935 15.5885C17.6225 15.7254 17.4206 15.8295 17.2007 15.8944C16.9809 15.9592 16.7479 15.9833 16.5168 15.9651C13.9525 15.7221 11.4893 14.9579 9.32511 13.734C7.31163 12.6182 5.60455 11.1295 4.32511 9.37353C2.91676 7.4776 2.04031 5.31902 1.76677 3.07265C1.74595 2.87169 1.77334 2.66914 1.84719 2.4779C1.92105 2.28667 2.03975 2.11095 2.19575 1.96191C2.35174 1.81288 2.54161 1.69381 2.75327 1.61228C2.96492 1.53075 3.19372 1.48854 3.42511 1.48835H5.92511C6.32953 1.48488 6.7216 1.60978 7.02824 1.83976C7.33488 2.06974 7.53517 2.38911 7.59177 2.73835C7.69729 3.43607 7.89298 4.12115 8.17511 4.7805C8.28723 5.04062 8.31149 5.32332 8.24503 5.5951C8.17857 5.86687 8.02416 6.11634 7.80011 6.31393L6.74177 7.2369C7.92807 9.05633 9.65549 10.5628 11.7418 11.5974L12.8001 10.6744C13.0267 10.479 13.3127 10.3443 13.6244 10.2864C13.936 10.2284 14.2602 10.2496 14.5584 10.3474C15.3145 10.5934 16.1001 10.7641 16.9001 10.8561C17.3049 10.9059 17.6746 11.0837 17.9389 11.3557C18.2032 11.6277 18.3436 11.975 18.3334 12.3314Z" stroke="white" stroke-opacity="0.5" stroke-width="2" stroke-linecap="round" stroke-linejoin="round"/>
</svg>
