<svg width="100" height="100" viewBox="0 0 100 100" fill="none" xmlns="http://www.w3.org/2000/svg">
<path d="M50 93.75C38.3968 93.75 27.2688 89.1406 19.0641 80.9359C10.8594 72.7312 6.25 61.6032 6.25 50C6.25 38.3968 10.8594 27.2688 19.0641 19.0641C27.2688 10.8594 38.3968 6.25 50 6.25C61.6032 6.25 72.7312 10.8594 80.9359 19.0641C89.1406 27.2688 93.75 38.3968 93.75 50C93.75 61.6032 89.1406 72.7312 80.9359 80.9359C72.7312 89.1406 61.6032 93.75 50 93.75ZM50 100C63.2608 100 75.9785 94.7322 85.3553 85.3553C94.7322 75.9785 100 63.2608 100 50C100 36.7392 94.7322 24.0215 85.3553 14.6447C75.9785 5.26784 63.2608 0 50 0C36.7392 0 24.0215 5.26784 14.6447 14.6447C5.26784 24.0215 0 36.7392 0 50C0 63.2608 5.26784 75.9785 14.6447 85.3553C24.0215 94.7322 36.7392 100 50 100Z" fill="black"/>
<path d="M68.5627 31.0625C68.5181 31.1056 68.4764 31.1516 68.4377 31.2L46.7314 58.8563L33.6502 45.7687C32.7616 44.9407 31.5863 44.49 30.3719 44.5114C29.1575 44.5328 27.9989 45.0248 27.14 45.8836C26.2812 46.7424 25.7892 47.9011 25.7678 49.1155C25.7464 50.3299 26.1972 51.5052 27.0252 52.3938L43.5627 68.9375C44.0082 69.3822 44.5387 69.7326 45.1226 69.9678C45.7064 70.2031 46.3317 70.3183 46.9611 70.3066C47.5904 70.2949 48.211 70.1566 48.7858 69.8999C49.3605 69.6432 49.8777 69.2734 50.3064 68.8125L75.2564 37.625C76.106 36.7333 76.5705 35.5431 76.5495 34.3117C76.5285 33.0802 76.0237 31.9066 75.1443 31.0443C74.2648 30.1821 73.0813 29.7007 71.8497 29.7041C70.6181 29.7075 69.4373 30.1954 68.5627 31.0625Z" fill="black"/>
</svg>
